HIERARCHY
ROOT Hips
{
	OFFSET 15.585500 22.159004 44.358299
	CHANNELS 6 Xposition Yposition Zposition Zrotation Xrotation Yrotation
	JOINT Chest
	{
		OFFSET -0.128500 0.160400 6.566002
		CHANNELS 6 Xposition Yposition Zposition Zrotation Xrotation Yrotation
		JOINT Chest2
		{
			OFFSET 0.000000 0.000000 3.554802
			CHANNELS 6 Xposition Yposition Zposition Zrotation Xrotation Yrotation
			JOINT Neck
			{
				OFFSET 0.000000 0.000000 8.267998
				CHANNELS 6 Xposition Yposition Zposition Zrotation Xrotation Yrotation
				JOINT Head
				{
					OFFSET 0.000000 0.000002 2.173897
					CHANNELS 6 Xposition Yposition Zposition Zrotation Xrotation Yrotation
					End Site
					{
						OFFSET 0.000000 0.000000 7.718697
					}
				}
			}
			JOINT LeftCollar
			{
				OFFSET 2.057500 0.117599 5.946301
				CHANNELS 6 Xposition Yposition Zposition Zrotation Xrotation Yrotation
				JOINT LeftShoulder
				{
					OFFSET 4.957699 0.000000 0.000000
					CHANNELS 6 Xposition Yposition Zposition Zrotation Xrotation Yrotation
					JOINT LeftElbow
					{
						OFFSET 0.000000 0.000000 -8.465500
						CHANNELS 6 Xposition Yposition Zposition Zrotation Xrotation Yrotation
						JOINT LeftWrist
						{
							OFFSET 0.000000 -0.000002 -14.594898
							CHANNELS 6 Xposition Yposition Zposition Zrotation Xrotation Yrotation
							End Site
							{
								OFFSET 0.000000 0.000000 -2.173901
							}
						}
					}
				}
			}
			JOINT RightCollar
			{
				OFFSET -3.048500 -0.728800 6.604099
				CHANNELS 6 Xposition Yposition Zposition Zrotation Xrotation Yrotation
				JOINT RightShoulder
				{
					OFFSET -3.710299 0.000000 0.000000
					CHANNELS 6 Xposition Yposition Zposition Zrotation Xrotation Yrotation
					JOINT RightElbow
					{
						OFFSET 0.000000 0.000000 -10.450901
						CHANNELS 6 Xposition Yposition Zposition Zrotation Xrotation Yrotation
						JOINT RightWrist
						{
							OFFSET 0.000000 0.000000 -12.539200
							CHANNELS 6 Xposition Yposition Zposition Zrotation Xrotation Yrotation
							End Site
							{
								OFFSET 0.000000 -0.000002 -2.173901
							}
						}
					}
				}
			}
		}
	}
	JOINT LeftHip
	{
		OFFSET 2.442599 -0.601400 -2.767502
		CHANNELS 6 Xposition Yposition Zposition Zrotation Xrotation Yrotation
		JOINT LeftKnee
		{
			OFFSET 0.000000 -0.000002 -17.033703
			CHANNELS 6 Xposition Yposition Zposition Zrotation Xrotation Yrotation
			JOINT LeftAnkle
			{
				OFFSET 0.000000 -0.000002 -19.318800
				CHANNELS 6 Xposition Yposition Zposition Zrotation Xrotation Yrotation
				End Site
				{
					OFFSET 0.000000 -8.281900 0.000000
				}
			}
		}
	}
	JOINT RightHip
	{
		OFFSET -3.126200 -0.601400 -2.283501
		CHANNELS 6 Xposition Yposition Zposition Zrotation Xrotation Yrotation
		JOINT RightKnee
		{
			OFFSET 0.000000 -0.000002 -16.919401
			CHANNELS 6 Xposition Yposition Zposition Zrotation Xrotation Yrotation
			JOINT RightAnkle
			{
				OFFSET 0.000000 -0.000002 -18.035900
				CHANNELS 6 Xposition Yposition Zposition Zrotation Xrotation Yrotation
				End Site
				{
					OFFSET 0.000000 -9.230099 0.000000
				}
			}
		}
	}
}
MOTION
Frames: 8
Frame Time: 0.041667
23.785200 38.560303 9.057201 6.290994 4.080522 -1.675257 -0.128504 0.160391 6.566010 -6.732923 1.159440 3.306708 -0.000003 -0.000003 3.554807 6.071527 -11.731041 -0.015839 0.000001 0.000007 8.267997 0.873586 6.142583 -3.297889 0.000002 0.000003 2.173897 -2.019630 -1.415371 1.598454 2.057509 0.117600 5.946306 -32.470296 14.600182 8.529524 4.957696 0.000007 0.000001 -23.320617 -17.902474 -179.131970 0.000005 0.000001 -8.465496 -114.019654 -163.317965 -162.786644 -0.000002 -0.000007 -14.594894 25.845543 -19.906079 -18.320890 -3.048500 -0.728796 6.604100 60.283741 16.990461 -37.092811 -3.710306 -0.000005 -0.000005 18.150242 -18.261081 200.616385 0.000000 0.000004 -10.450896 -50.894974 -14.746868 -7.558729 0.000005 -0.000003 -12.539198 673.716363 -8.896163 21.869371 2.442591 -0.601407 -2.767502 132.429909 -0.460799 95.433541 -0.000001 -0.000003 -17.033709 -180.210744 46.855583 172.268723 -0.000002 -0.000000 -19.318802 -151.220197 117.533677 401.881227 -3.126200 -0.601405 -2.283499 -137.161892 -19.618269 -99.280973 -0.000007 -0.000002 -16.919403 312.496973 -53.350048 -221.197316 0.000001 0.000002 -18.035894 167.109362 54.906713 -184.219559
23.803101 38.570000 9.055405 6.319954 4.065590 -1.583187 -0.128504 0.160398 6.566002 -6.776787 1.158831 3.297255 0.000000 0.000001 3.554802 6.198914 -11.717730 0.013117 -0.000001 0.000005 8.268000 -0.017054 6.178337 -3.072741 -0.000000 0.000005 2.173897 -1.572656 -1.427192 1.300030 2.057507 0.117607 5.946306 -32.573691 14.747806 8.305554 4.957695 0.000003 -0.000004 -23.160412 -18.106094 -178.941203 -0.000001 -0.000001 -8.465498 -114.059460 -163.307801 -162.816547 -0.000005 0.000005 -14.594889 25.889643 -19.854494 -18.355068 -3.048503 -0.728796 6.604102 60.865107 16.974704 -37.617342 -3.710299 -0.000001 0.000001 17.891149 -18.718953 200.873705 -0.000004 0.000003 -10.450893 -51.019703 -14.614339 -7.517145 0.000002 -0.000001 -12.539194 673.738493 -8.874546 21.787796 2.442592 -0.601401 -2.767506 132.325558 -0.627973 95.508536 -0.000001 0.000000 -17.033705 -180.121391 46.936619 172.277602 -0.000002 -0.000002 -19.318802 -151.206564 117.537625 401.878605 -3.126201 -0.601405 -2.283504 -137.188571 -19.521273 -99.219474 -0.000003 -0.000001 -16.919403 312.287669 -53.201102 -221.372168 -0.000001 0.000000 -18.035894 166.791184 54.942363 -184.224272
23.821402 38.579803 9.053501 6.346132 4.046853 -1.491375 -0.128497 0.160396 6.566005 -6.819018 1.162712 3.292509 -0.000002 0.000005 3.554801 6.326164 -11.705552 0.042026 0.000003 0.000007 8.267998 -0.824402 6.206409 -2.851396 -0.000001 0.000003 2.173895 -1.171737 -1.445253 0.994040 2.057506 0.117599 5.946305 -32.669461 14.888209 8.095250 4.957696 0.000010 -0.000007 -23.010643 -18.297442 -178.764533 0.000001 0.000008 -8.465492 -114.092668 -163.296272 -162.840302 -0.000004 -0.000002 -14.594894 25.935731 -19.808030 -18.378810 -3.048501 -0.728802 6.604100 61.414247 16.938179 -38.152996 -3.710299 -0.000000 0.000000 17.636949 -19.156939 201.136859 -0.000002 0.000002 -10.450896 -51.165815 -14.490458 -7.477139 0.000000 -0.000004 -12.539198 673.752372 -8.856477 21.716933 2.442594 -0.601404 -2.767503 132.222804 -0.790663 95.584795 -0.000001 -0.000001 -17.033707 -180.043158 47.018797 172.289842 -0.000002 -0.000000 -19.318802 -151.194966 117.539701 401.880380 -3.126193 -0.601401 -2.283497 -137.213282 -19.436603 -99.159792 -0.000006 -0.000005 -16.919405 312.041345 -53.039093 -221.565722 0.000001 0.000002 -18.035894 166.433774 54.982029 -184.228165
23.840298 38.589607 9.051399 6.367927 4.023649 -1.399615 -0.128497 0.160394 6.565994 -6.858038 1.172335 3.294408 -0.000003 -0.000008 3.554801 6.451915 -11.694932 0.070469 0.000002 0.000003 8.267993 -1.556331 6.221058 -2.687372 0.000002 0.000001 2.173899 -0.803755 -1.464358 0.733590 2.057504 0.117602 5.946301 -32.755692 15.020361 7.898216 4.957701 0.000010 -0.000001 -22.872584 -18.473507 -178.601770 -0.000001 0.000006 -8.465491 -114.119299 -163.283704 -162.858894 -0.000005 0.000003 -14.594903 25.982362 -19.766996 -18.391113 -3.048501 -0.728798 6.604096 61.899573 16.877348 -38.681694 -3.710293 -0.000007 -0.000002 17.402084 -19.557241 201.389084 0.000004 0.000005 -10.450896 -51.336347 -14.375105 -7.438097 0.000001 -0.000002 -12.539194 673.758656 -8.841762 21.660333 2.442596 -0.601403 -2.767512 132.123603 -0.949160 95.662714 -0.000001 0.000002 -17.033710 -179.977179 47.102135 172.305961 -0.000003 -0.000002 -19.318796 -151.186128 117.539428 401.887675 -3.126194 -0.601403 -2.283508 -137.234497 -19.363448 -99.102671 -0.000005 0.000001 -16.919403 311.762127 -52.865026 -221.776201 0.000002 0.000003 -18.035892 166.038538 55.026374 -184.233220
23.859501 38.599503 9.049091 6.384042 3.995288 -1.307747 -0.128501 0.160400 6.566010 -6.893106 1.188322 3.304018 -0.000001 0.000000 3.554806 6.575308 -11.686187 0.098124 0.000002 0.000001 8.267999 -2.186688 6.225323 -2.569818 0.000002 0.000003 2.173895 -0.494577 -1.487661 0.503506 2.057507 0.117604 5.946311 -32.830551 15.143687 7.711981 4.957697 0.000006 -0.000006 -22.746147 -18.632910 -178.450590 -0.000002 0.000002 -8.465504 -114.138321 -163.270932 -162.873087 -0.000005 -0.000003 -14.594887 26.028191 -19.731493 -18.390959 -3.048505 -0.728802 6.604099 62.292302 16.789858 -39.186554 -3.710301 -0.000002 -0.000009 17.198655 -19.903919 201.614398 -0.000005 0.000000 -10.450891 -51.533962 -14.268328 -7.399257 -0.000001 -0.000004 -12.539192 673.758000 -8.830754 21.620346 2.442593 -0.601401 -2.767495 132.029237 -1.104139 95.742771 -0.000001 0.000004 -17.033707 -179.923930 47.186553 172.326260 -0.000005 -0.000004 -19.318802 -151.180350 117.536655 401.901308 -3.126199 -0.601403 -2.283499 -137.251244 -19.300568 -99.048576 -0.000004 -0.000003 -16.919403 311.455315 -52.680074 -222.000942 0.000002 0.000002 -18.035894 165.608592 55.075780 -184.241402
23.878899 38.609509 9.046600 6.393371 3.961817 -1.215298 -0.128500 0.160402 6.566005 -6.923072 1.210909 3.322253 0.000004 0.000003 3.554808 6.695774 -11.679410 0.125096 0.000003 0.000003 8.267992 -2.713773 6.220427 -2.503276 0.000001 0.000001 2.173899 -0.293876 -1.517776 0.280219 2.057508 0.117601 5.946303 -32.893665 15.259102 7.533900 4.957697 0.000006 0.000000 -22.629385 -18.775761 -178.307949 -0.000002 0.000000 -8.465497 -114.148956 -163.258351 -162.883906 -0.000001 0.000000 -14.594887 26.072017 -19.701817 -18.377877 -3.048498 -0.728797 6.604095 62.571937 16.675553 -39.653841 -3.710298 -0.000000 -0.000002 17.034360 -20.186184 201.799879 -0.000000 0.000005 -10.450893 -51.761274 -14.169496 -7.360535 -0.000000 -0.000006 -12.539192 673.722920 -8.822415 21.591773 2.442590 -0.601402 -2.767498 131.940882 -1.256630 95.825717 -0.000004 -0.000003 -17.033705 -179.882881 47.272255 172.351149 -0.000002 0.000000 -19.318804 -151.178246 117.530999 401.922454 -3.126198 -0.601400 -2.283495 -137.262460 -19.245999 -98.997459 -0.000004 -0.000002 -16.919397 311.126974 -52.485878 -222.237021 0.000001 -0.000001 -18.035896 165.148141 55.130480 -184.254489
23.898598 38.619507 9.043694 6.395088 3.923290 -1.121523 -0.128500 0.160403 6.566001 -6.947224 1.239628 3.349037 -0.000001 0.000002 3.554809 6.813259 -11.674537 0.151083 -0.000000 -0.000002 8.268001 -3.144468 6.207641 -2.487602 0.000002 0.000007 2.173894 -0.110113 -1.548830 0.116380 2.057503 0.117593 5.946308 -32.945100 15.367499 7.360700 4.957698 0.000004 0.000003 -22.519385 -18.903245 -178.169897 0.000003 0.000000 -8.465507 -114.150117 -163.246494 -162.891925 -0.000005 0.000010 -14.594896 26.112874 -19.677551 -18.352237 -3.048503 -0.728803 6.604101 62.725473 16.535338 -40.072956 -3.710302 -0.000001 0.000000 16.912653 -20.397942 201.934898 0.000002 0.000005 -10.450893 -52.019305 -14.077991 -7.321646 0.000004 -0.000003 -12.539198 673.711828 -8.818047 21.587551 2.442595 -0.601396 -2.767505 131.859261 -1.407975 95.912849 -0.000001 -0.000000 -17.033703 -179.853088 47.359391 172.380437 -0.000004 0.000000 -19.318804 -151.179694 117.522448 401.951196 -3.126198 -0.601397 -2.283502 -137.267459 -19.198055 -98.949319 -0.000004 -0.000003 -16.919403 310.783033 -52.284203 -222.481364 0.000000 -0.000001 -18.035896 164.662323 55.190633 -184.273969
23.918402 38.629509 9.040398 6.396251 3.884543 -0.939445 -0.128500 0.160404 6.566004 -6.970660 1.280055 3.296791 -0.000003 0.000007 3.554810 6.928189 -11.671654 0.176294 0.000000 -0.000003 8.267992 -3.492195 6.188736 -2.518164 0.000001 0.000004 2.173901 0.019605 -1.583406 -0.017652 2.057503 0.117602 5.946306 -32.985425 15.470206 7.189070 4.957695 0.000009 0.000004 -22.413126 -19.016966 -178.032364 -0.000005 0.000005 -8.465499 -114.141183 -163.235593 -162.897935 0.000005 -0.000002 -14.594895 26.150537 -19.658780 -18.314573 -3.048504 -0.728803 6.604098 62.747978 16.371530 -40.437042 -3.710304 -0.000001 -0.000002 16.833363 -20.537472 202.013049 0.000005 0.000004 -10.450893 -52.308881 -13.992365 -7.282428 0.000001 -0.000001 -12.539198 673.694671 -8.817621 21.599230 2.442596 -0.601399 -2.767497 131.779006 -1.621862 96.066413 -0.000002 0.000006 -17.033714 -179.832638 47.448180 172.413878 -0.000002 -0.000000 -19.318802 -151.184953 117.510959 401.988297 -3.126195 -0.601399 -2.283497 -137.252064 -19.092419 -98.839305 -0.000004 -0.000004 -16.919401 310.429174 -52.077098 -222.730925 0.000002 0.000001 -18.035896 164.156124 55.256258 -184.300606
